#!OML:ASF X:\für Bonn\!DataBase\2005_08_12_Daniel\c3d\Daniel.ASF
:FULLY-SPECIFIED
:DEGREES
325
root 2.73296 17.6814 17.3005 -4.59515 4.03259 -0.494625
lowerback 3.82844 -2.76912 -0.780583
upperback 2.77669 -3.70745 -2.10027
thorax 0.617451 -1.84857 -1.59539
lowerneck 3.15519 -3.94352 -4.40021
upperneck 21.1506 -5.85603 3.00831
head 6.11117 -3.0044 1.43814
rclavicle -1.89839e-014 -2.06736e-014
rhumerus -53.3006 8.45476 -103.156
rradius 111.586
rwrist -29.6506
rhand -21.9101 25.3836
rfingers 7.12502
rthumb 4.49554 -4.54874
lclavicle -1.89839e-014 -2.06736e-014
lhumerus -33.0851 31.9921 74.3552
lradius 19.7437
lwrist -33.1144
lhand -9.41319 -6.53844
lfingers 7.12502
lthumb 16.5487 22.7759
rfemur 7.1056 22.9234 22.1381
rtibia 14.4837
rfoot -23.6422 -24.7592
rtoes -11.4258
lfemur 2.69534 -17.0255 -20.4639
ltibia 25.1295
lfoot -23.4724 17.1165
ltoes -11.5256
326
root 2.73124 17.6812 17.299 -4.59753 4.0022 -0.496825
lowerback 3.76859 -2.79745 -0.830688
upperback 2.80473 -3.74488 -2.06544
thorax 0.684326 -1.86815 -1.53489
lowerneck 3.15597 -3.72649 -4.05055
upperneck 21.1149 -5.51339 2.70811
head 6.06725 -2.83139 1.3015
rclavicle -8.57259e-015 -3.10104e-014
rhumerus -53.2211 8.62207 -103.318
rradius 111.416
rwrist -29.7507
rhand -21.9068 25.3828
rfingers 7.12502
rthumb 4.49873 -4.54946
lclavicle -8.57259e-015 -3.10104e-014
lhumerus -33.0191 32.1586 74.3256
lradius 19.6959
lwrist -33.2537
lhand -9.26113 -6.66541
lfingers 7.12502
lthumb 16.6951 22.6367
rfemur 7.08053 22.9136 22.1329
rtibia 14.4994
rfoot -23.6301 -24.7122
rtoes -11.3887
lfemur 2.70156 -17.0286 -20.4584
ltibia 25.1204
lfoot -23.4738 17.143
ltoes -11.5176
327
root 2.73002 17.6809 17.298 -4.60676 3.96317 -0.508272
lowerback 3.72235 -2.81256 -0.832478
upperback 2.81633 -3.76396 -2.06575
thorax 0.721733 -1.8777 -1.53653
lowerneck 3.22601 -3.50345 -3.70341
upperneck 21.077 -5.17514 2.46549
head 6.01492 -2.65771 1.18441
rclavicle 6.06045e-014 3.18055e-014
rhumerus -53.1642 8.73173 -103.51
rradius 111.249
rwrist -29.8042
rhand -21.8822 25.3175
rfingers 7.12502
rthumb 4.52254 -4.61417
lclavicle 6.06045e-014 3.18055e-014
lhumerus -32.9685 32.2081 74.2704
lradius 19.6452
lwrist -33.3543
lhand -9.21786 -6.68866
lfingers 7.12502
lthumb 16.7367 22.6099
rfemur 7.0823 22.9404 22.1478
rtibia 14.506
rfoot -23.6724 -24.6731
rtoes -11.3063
lfemur 2.72722 -17.0771 -20.4735
ltibia 25.1172
lfoot -23.4755 17.2547
ltoes -11.5978
328
root 2.72934 17.6811 17.2973 -4.59701 3.91798 -0.507581
lowerback 3.64856 -2.82862 -0.85915
upperback 2.83492 -3.78429 -2.04844
thorax 0.784442 -1.88833 -1.50809
lowerneck 3.25676 -3.28672 -3.37236
upperneck 21.0396 -4.84232 2.21344
head 5.97188 -2.48788 1.0654
rclavicle -1.69961e-014 -5.56597e-015
rhumerus -53.0838 8.8767 -103.648
rradius 111.107
rwrist -29.8655
rhand -21.8568 25.2719
rfingers 7.12502
rthumb 4.54707 -4.65932
lclavicle -1.69961e-014 -5.56597e-015
lhumerus -32.9035 32.1687 74.307
lradius 19.6408
lwrist -33.2862
lhand -9.20609 -6.66168
lfingers 7.12502
lthumb 16.748 22.6359
rfemur 7.05645 22.9923 22.1507
rtibia 14.5219
rfoot -23.6723 -24.6809
rtoes -11.3069
lfemur 2.7354 -17.1122 -20.4877
ltibia 25.1086
lfoot -23.4953 17.3285
ltoes -11.5824
